<svg width="629" height="422" viewBox="0 0 629 422" fill="none" xmlns="http://www.w3.org/2000/svg">
<mask id="mask0_358_421" style="mask-type:alpha" maskUnits="userSpaceOnUse" x="0" y="0" width="139" height="422">
<path d="M0 0H138.572V421.722H0V0Z" fill="black"/>
</mask>
<g mask="url(#mask0_358_421)">
<mask id="mask1_358_421" style="mask-type:alpha" maskUnits="userSpaceOnUse" x="1" y="7" width="129" height="414">
<path d="M95.2646 7.75488C89.3825 7.75488 83.4282 8.9904 77.3656 11.4614C71.3392 13.9668 65.854 17.6733 60.9462 22.6154C56.0746 27.5917 51.9607 33.735 48.7129 40.9765C45.429 48.2866 43.8051 56.592 43.8051 65.8583V147.711C43.8051 155.776 42.5782 163.052 40.1243 169.573C37.6704 176.094 34.4948 181.585 30.5613 186.081C26.664 190.577 22.1532 194.077 17.1011 196.548C12.0129 199.019 6.88856 200.289 1.65601 200.289V228.157C6.88856 228.157 12.0129 229.324 17.1011 231.657C22.1532 233.991 26.664 237.457 30.5613 242.125C34.4948 246.792 37.6704 252.352 40.1243 258.873C42.5782 265.359 43.8051 272.807 43.8051 281.181V362.553C43.8051 371.854 45.3568 380.159 48.4603 387.435C51.5637 394.711 55.5693 400.82 60.4771 405.796C65.3849 410.773 70.834 414.479 76.8965 416.95C82.923 419.456 89.0577 420.691 95.2646 420.691H129.583V392.789H103.131C97.8989 392.789 93.7128 391.691 90.6094 389.529C87.506 387.366 85.0521 384.552 83.2838 381.155C81.4434 377.757 80.3247 373.879 79.8195 369.52C79.3504 365.196 79.0978 360.7 79.0978 356.067V274.66C79.0978 263.197 77.4739 253.656 74.19 246.072C70.9061 238.487 67.0088 232.412 62.4258 227.951C57.8428 223.455 53.1876 220.195 48.4603 218.17C43.7329 216.145 39.8717 215.012 36.9487 214.669V213.742C39.8717 213.125 43.7329 211.649 48.4603 209.315C53.1876 207.016 57.8428 203.515 62.4258 198.882C67.0088 194.214 70.9061 188.277 74.19 180.967C77.4739 173.691 79.0978 164.768 79.0978 154.232V72.3791C79.0978 67.7459 79.3504 63.25 79.8195 58.8914C80.3247 54.5671 81.4434 50.6203 83.2838 47.0511C85.0521 43.4818 87.506 40.7019 90.6094 38.677C93.7128 36.6522 97.8989 35.6569 103.131 35.6569H129.583V7.75488H95.2646Z" fill="black"/>
</mask>
<g mask="url(#mask1_358_421)">
<path d="M-44.5337 464.622H175.775V-36.1729H-44.5337V464.622Z" fill="black"/>
</g>
</g>
<mask id="mask2_358_421" style="mask-type:alpha" maskUnits="userSpaceOnUse" x="489" y="0" width="140" height="422">
<path d="M489.622 0H628.194V421.722H489.622V0Z" fill="black"/>
</mask>
<g mask="url(#mask2_358_421)">
<mask id="mask3_358_421" style="mask-type:alpha" maskUnits="userSpaceOnUse" x="492" y="7" width="129" height="414">
<path d="M492.683 7.75488V35.6569H519.135C524.367 35.6569 528.553 36.6522 531.657 38.677C534.76 40.7019 537.106 43.4818 538.766 47.0511C540.39 50.6203 541.508 54.5671 542.194 58.8914C542.844 63.25 543.168 67.7459 543.168 72.3791V154.232C543.168 164.768 544.792 173.691 548.076 180.967C551.324 188.277 555.257 194.214 559.84 198.882C564.387 203.515 569.042 207.016 573.806 209.315C578.533 211.649 582.358 213.125 585.317 213.742V214.669C582.358 215.012 578.533 216.145 573.806 218.17C569.042 220.195 564.387 223.455 559.84 227.951C555.257 232.412 551.324 238.487 548.076 246.072C544.792 253.656 543.168 263.197 543.168 274.66V356.067C543.168 360.7 542.844 365.196 542.194 369.52C541.508 373.879 540.39 377.757 538.766 381.155C537.106 384.552 534.76 387.366 531.657 389.529C528.553 391.691 524.367 392.789 519.135 392.789H492.683V420.691H527.002C533.208 420.691 539.307 419.456 545.37 416.95C551.396 414.479 556.881 410.773 561.789 405.796C566.697 400.82 570.702 394.711 573.806 387.435C576.909 380.159 578.461 371.854 578.461 362.553V281.181C578.461 272.807 579.688 265.359 582.142 258.873C584.596 252.352 587.771 246.792 591.669 242.125C595.602 237.457 600.113 233.991 605.165 231.657C610.217 229.324 615.378 228.157 620.61 228.157V200.289C615.378 200.289 610.217 199.019 605.165 196.548C600.113 194.077 595.602 190.577 591.669 186.081C587.771 181.585 584.596 176.094 582.142 169.573C579.688 163.052 578.461 155.776 578.461 147.711V65.8583C578.461 56.592 576.801 48.2866 573.553 40.9765C570.269 33.735 566.192 27.5917 561.284 22.6154C556.412 17.6733 550.927 13.9668 544.864 11.4614C538.838 8.9904 532.884 7.75488 527.002 7.75488H492.683Z" fill="black"/>
</mask>
<g mask="url(#mask3_358_421)">
<path d="M446.494 464.622H666.802V-36.1729H446.494V464.622Z" fill="black"/>
</g>
</g>
<mask id="mask4_358_421" style="mask-type:alpha" maskUnits="userSpaceOnUse" x="314" y="263" width="158" height="80">
<path d="M314.098 263.578H471.147V342.651H314.098V263.578Z" fill="black"/>
</mask>
<g mask="url(#mask4_358_421)">
<mask id="mask5_358_421" style="mask-type:alpha" maskUnits="userSpaceOnUse" x="323" y="267" width="144" height="72">
<path d="M327.522 295.15C326.006 295.15 324.563 295.047 323.047 294.978C335.425 309.187 352.097 320.958 371.62 328.646C404.025 341.413 439.21 341.104 466.96 328.063C457.867 302.529 436.395 280.392 407.959 267.042C384.07 285.163 355.417 295.15 327.522 295.15Z" fill="black"/>
</mask>
<g mask="url(#mask5_358_421)">
<path d="M276.855 381.982H513.15V223.115H276.855V381.982Z" fill="black"/>
</g>
</g>
<mask id="mask6_358_421" style="mask-type:alpha" maskUnits="userSpaceOnUse" x="415" y="219" width="84" height="71">
<path d="M415.72 219.647H498.863V289.934H415.72V219.647Z" fill="black"/>
</mask>
<g mask="url(#mask6_358_421)">
<mask id="mask7_358_421" style="mask-type:alpha" maskUnits="userSpaceOnUse" x="419" y="222" width="76" height="64">
<path d="M419.11 257.639C433.22 264.915 445.633 274.284 455.846 285.026C471.868 276.378 485.04 264.709 494.17 251.221C481.792 238.488 465.192 228.707 446.103 222.907C439.318 235.468 430.225 247.24 419.11 257.639Z" fill="black"/>
</mask>
<g mask="url(#mask7_358_421)">
<path d="M372.882 328.991H540.359V179.014H372.882V328.991Z" fill="black"/>
</g>
</g>
<mask id="mask8_358_421" style="mask-type:alpha" maskUnits="userSpaceOnUse" x="147" y="263" width="158" height="80">
<path d="M147.81 263.578H304.859V342.651H147.81V263.578Z" fill="black"/>
</mask>
<g mask="url(#mask8_358_421)">
<mask id="mask9_358_421" style="mask-type:alpha" maskUnits="userSpaceOnUse" x="155" y="267" width="145" height="72">
<path d="M155.322 328.069C183.036 341.11 218.257 341.419 250.662 328.652C270.185 320.964 286.857 309.193 299.235 294.984C297.755 295.053 296.24 295.156 294.76 295.156C266.865 295.156 238.213 285.169 214.287 267.048C185.887 280.398 164.38 302.535 155.322 328.069Z" fill="black"/>
</mask>
<g mask="url(#mask9_358_421)">
<path d="M109.13 381.986H345.425V223.119H109.13V381.986Z" fill="black"/>
</g>
</g>
<mask id="mask10_358_421" style="mask-type:alpha" maskUnits="userSpaceOnUse" x="277" y="298" width="65" height="63">
<path d="M277.145 298.721H341.812V360.222H277.145V298.721Z" fill="black"/>
</mask>
<g mask="url(#mask10_358_421)">
<mask id="mask11_358_421" style="mask-type:alpha" maskUnits="userSpaceOnUse" x="283" y="301" width="56" height="56">
<path d="M283.902 326.176C291.156 338.428 300.502 348.964 311.4 356.995C322.226 348.998 331.537 338.565 338.754 326.416C328.181 319.38 318.943 311.04 311.184 301.843C303.534 310.938 294.331 319.174 283.902 326.176Z" fill="black"/>
</mask>
<g mask="url(#mask11_358_421)">
<path d="M237.709 400.926H384.943V257.915H237.709V400.926Z" fill="black"/>
</g>
</g>
<mask id="mask12_358_421" style="mask-type:alpha" maskUnits="userSpaceOnUse" x="120" y="219" width="84" height="71">
<path d="M120.096 219.647H203.24V289.934H120.096V219.647Z" fill="black"/>
</mask>
<g mask="url(#mask12_358_421)">
<mask id="mask13_358_421" style="mask-type:alpha" maskUnits="userSpaceOnUse" x="128" y="222" width="76" height="64">
<path d="M128.101 251.224C137.231 264.712 150.402 276.38 166.425 285.063C176.637 274.287 189.051 264.918 203.161 257.642C192.01 247.243 182.952 235.471 176.168 222.91C157.078 228.71 140.479 238.526 128.101 251.224Z" fill="black"/>
</mask>
<g mask="url(#mask13_358_421)">
<path d="M81.9111 328.957H249.353V179.014H81.9111V328.957Z" fill="black"/>
</g>
</g>
<mask id="mask14_358_421" style="mask-type:alpha" maskUnits="userSpaceOnUse" x="314" y="158" width="139" height="132">
<path d="M314.098 158.147H452.67V289.936H314.098V158.147Z" fill="black"/>
</mask>
<g mask="url(#mask14_358_421)">
<mask id="mask15_358_421" style="mask-type:alpha" maskUnits="userSpaceOnUse" x="318" y="166" width="129" height="116">
<path d="M424.157 167.038L318.713 281.597C349.494 284.343 382.477 272.571 407.919 249.646C433.36 226.686 447.361 195.969 446.098 166.592C443.247 166.317 440.36 166.18 437.473 166.18C433.071 166.18 428.596 166.489 424.157 167.038Z" fill="black"/>
</mask>
<g mask="url(#mask15_358_421)">
<path d="M272.523 325.906H492.399V122.252H272.523V325.906Z" fill="black"/>
</g>
</g>
<path d="M280.32 142.944L311.391 231.318L342.461 142.944" fill="#E62247"/>
<path d="M248.421 71.4541L190.177 137.829L309.479 267.455L265.706 142.942H215.041V129.763H261.051L245.137 84.53L258.308 80.3429L273.32 123.105L311.392 76.4648L349.463 123.105L364.511 80.3773L377.647 84.5643L361.733 129.763H407.743V142.942H357.113L313.304 267.455L432.643 137.829L374.399 71.4541" fill="#E62247"/>
<path d="M285.409 129.764H337.374L311.392 97.9492" fill="#E62247"/>
<mask id="mask16_358_421" style="mask-type:alpha" maskUnits="userSpaceOnUse" x="175" y="158" width="130" height="132">
<path d="M175.527 158.147H304.861V289.936H175.527V158.147Z" fill="black"/>
</mask>
<g mask="url(#mask16_358_421)">
<mask id="mask17_358_421" style="mask-type:alpha" maskUnits="userSpaceOnUse" x="176" y="166" width="128" height="116">
<path d="M176.134 166.556C174.907 195.968 188.909 226.685 214.35 249.645C239.791 272.57 272.738 284.342 303.556 281.596C303.556 281.39 303.556 281.219 303.556 281.013L198.688 167.105C194.069 166.488 189.414 166.179 184.831 166.179C181.908 166.179 179.021 166.316 176.134 166.556Z" fill="black"/>
</mask>
<g mask="url(#mask17_358_421)">
<path d="M129.875 325.901H349.751V122.281H129.875V325.901Z" fill="black"/>
</g>
</g>
</svg>
